<svg xmlns="http://www.w3.org/2000/svg" version="1.0" preserveAspectRatio="xMidYMid meet" viewBox="227 134.96 397.3 397.9">
<g transform="translate(0.000000,850.000000) scale(0.100000,-0.100000)" fill="#000000" stroke="none">
<path d="M3658 7141 c-42 -3 -83 -12 -90 -19 -10 -10 -13 -115 -13 -503 0 -474 1 -491 19 -505 16 -11 70 -14 271 -14 201 0 255 3 271 14 18 14 19 31 19 511 0 480 -1 497 -19 511 -16 11 -58 14 -200 12 -100 -1 -216 -4 -258 -7z" fill="#2A61AA"/>
<path d="M4391 7131 l-22 -22 3 -490 c3 -472 4 -491 22 -505 29 -21 513 -21 542 0 18 14 19 32 22 487 3 486 0 520 -36 534 -10 3 -128 9 -263 12 -243 6 -246 6 -268 -16z" fill="#2A61AA"/>
<path d="M3100 7113 c-19 -2 -116 -10 -215 -19 -282 -24 -476 -51 -493 -68 -18 -17 -25 -63 -52 -306 -35 -323 -50 -562 -37 -590 l12 -25 485 -3 c484 -2 485 -2 503 19 16 20 17 58 17 488 0 406 -2 469 -16 489 -14 20 -23 22 -92 20 -42 0 -93 -3 -112 -5z" fill="#2A61AA"/>
<path d="M5207 7099 c-15 -21 -17 -72 -17 -489 0 -405 2 -468 16 -488 l15 -22 478 0 c396 0 480 2 497 14 23 17 22 65 -2 346 -31 368 -55 546 -77 568 -21 20 -476 73 -771 88 -121 7 -123 7 -139 -17z" fill="#2A61AA"/>
<path d="M2302 5851 c-25 -15 -32 -84 -32 -313 0 -193 2 -229 16 -242 14 -14 73 -16 505 -16 476 0 490 1 509 20 19 19 20 33 20 268 0 208 -2 251 -16 270 l-15 22 -487 0 c-268 0 -493 -4 -500 -9z" fill="#2A61AA"/>
<path d="M5206 5838 c-14 -19 -16 -67 -16 -320 0 -311 4 -341 44 -352 11 -3 233 -6 491 -6 410 0 473 2 493 16 22 15 22 17 21 292 0 288 -7 368 -30 383 -8 5 -233 9 -501 9 l-487 0 -15 -22z" fill="#2A61AA"/>
<path d="M2280 5026 c-8 -11 -11 -83 -8 -271 3 -256 3 -257 27 -276 22 -18 46 -19 502 -19 466 0 480 1 499 20 19 19 20 33 20 268 0 208 -2 251 -16 270 l-15 22 -498 0 c-422 0 -500 -2 -511 -14z" fill="#2A61AA"/>
<path d="M5210 4910 c-19 -19 -20 -33 -20 -244 0 -138 4 -236 11 -257 8 -24 138 -161 458 -482 245 -247 454 -453 463 -458 13 -7 20 -5 27 9 25 47 77 730 88 1158 l6 261 -24 16 c-21 15 -72 17 -506 17 -470 0 -484 -1 -503 -20z" fill="#2A61AA"/>
<path d="M2333 4220 c-33 -14 -43 -42 -38 -107 3 -32 12 -143 20 -248 15 -189 50 -497 61 -542 4 -13 14 -28 23 -32 30 -16 416 -58 792 -87 140 -10 129 -55 129 509 0 469 0 474 -21 493 -20 18 -44 19 -483 21 -254 1 -471 -2 -483 -7z" fill="#2A61AA"/>
<path d="M3593 4220 c-12 -5 -26 -18 -32 -29 -7 -13 -11 -177 -11 -491 l0 -471 23 -23 c23 -23 27 -24 323 -31 249 -6 303 -5 324 7 l25 14 3 499 c2 500 2 500 -19 518 -19 15 -50 17 -318 16 -163 0 -306 -4 -318 -9z" fill="#2A61AA"/>
<path d="M4530 4219 c-13 -6 -28 -15 -32 -22 -9 -14 -11 -968 -2 -992 4 -9 16 -20 28 -25 45 -17 705 13 1116 51 276 25 304 30 308 53 5 24 -876 911 -925 932 -39 17 -452 19 -493 3z" fill="#2A61AA"/>
</g>
</svg>