<svg xmlns="http://www.w3.org/2000/svg" xmlns:xlink="http://www.w3.org/1999/xlink" viewBox="0 0 48 48" version="1.1">
<path stroke="none" fillRule="nonzero" fill="#000000" fillOpacity="1" d="M 12.921875 14.769531 L 1.847656 14.769531 C 0.828125 14.769531 0 13.941406 0 12.921875 L 0 1.847656 C 0 0.828125 0.828125 0 1.847656 0 L 12.921875 0 C 13.941406 0 14.769531 0.828125 14.769531 1.847656 L 14.769531 12.921875 C 14.769531 13.941406 13.941406 14.769531 12.921875 14.769531 Z M 3.691406 11.078125 L 11.078125 11.078125 L 11.078125 3.691406 L 3.691406 3.691406 Z M 3.691406 11.078125 "/>
<path stroke="none" fillRule="nonzero" fill="#000000" fillOpacity="1" d="M 12.921875 31.382812 L 1.847656 31.382812 C 0.828125 31.382812 0 30.558594 0 29.539062 L 0 18.460938 C 0 17.441406 0.828125 16.617188 1.847656 16.617188 L 12.921875 16.617188 C 13.941406 16.617188 14.769531 17.441406 14.769531 18.460938 L 14.769531 29.539062 C 14.769531 30.558594 13.941406 31.382812 12.921875 31.382812 Z M 3.691406 27.691406 L 11.078125 27.691406 L 11.078125 20.308594 L 3.691406 20.308594 Z M 3.691406 27.691406 "/>
<path stroke="none" fillRule="nonzero" fill="#000000" fillOpacity="1" d="M 12.921875 48 L 1.847656 48 C 0.828125 48 0 47.171875 0 46.152344 L 0 35.078125 C 0 34.058594 0.828125 33.230469 1.847656 33.230469 L 12.921875 33.230469 C 13.941406 33.230469 14.769531 34.058594 14.769531 35.078125 L 14.769531 46.152344 C 14.769531 47.171875 13.941406 48 12.921875 48 Z M 3.691406 44.308594 L 11.078125 44.308594 L 11.078125 36.921875 L 3.691406 36.921875 Z M 3.691406 44.308594 "/>
<path stroke="none" fillRule="nonzero" fill="#000000" fillOpacity="1" d="M 29.539062 14.769531 L 18.460938 14.769531 C 17.441406 14.769531 16.617188 13.941406 16.617188 12.921875 L 16.617188 1.847656 C 16.617188 0.828125 17.441406 0 18.460938 0 L 29.539062 0 C 30.558594 0 31.382812 0.828125 31.382812 1.847656 L 31.382812 12.921875 C 31.382812 13.941406 30.558594 14.769531 29.539062 14.769531 Z M 20.308594 11.078125 L 27.691406 11.078125 L 27.691406 3.691406 L 20.308594 3.691406 Z M 20.308594 11.078125 "/>
<path stroke="none" fillRule="nonzero" fill="#000000" fillOpacity="1" d="M 29.539062 31.382812 L 18.460938 31.382812 C 17.441406 31.382812 16.617188 30.558594 16.617188 29.539062 L 16.617188 18.460938 C 16.617188 17.441406 17.441406 16.617188 18.460938 16.617188 L 29.539062 16.617188 C 30.558594 16.617188 31.382812 17.441406 31.382812 18.460938 L 31.382812 29.539062 C 31.382812 30.558594 30.558594 31.382812 29.539062 31.382812 Z M 20.308594 27.691406 L 27.691406 27.691406 L 27.691406 20.308594 L 20.308594 20.308594 Z M 20.308594 27.691406 "/>
<path stroke="none" fillRule="nonzero" fill="#000000" fillOpacity="1" d="M 29.539062 48 L 18.460938 48 C 17.441406 48 16.617188 47.171875 16.617188 46.152344 L 16.617188 35.078125 C 16.617188 34.058594 17.441406 33.230469 18.460938 33.230469 L 29.539062 33.230469 C 30.558594 33.230469 31.382812 34.058594 31.382812 35.078125 L 31.382812 46.152344 C 31.382812 47.171875 30.558594 48 29.539062 48 Z M 20.308594 44.308594 L 27.691406 44.308594 L 27.691406 36.921875 L 20.308594 36.921875 Z M 20.308594 44.308594 "/>
<path stroke="none" fillRule="nonzero" fill="#000000" fillOpacity="1" d="M 46.152344 14.769531 L 35.078125 14.769531 C 34.058594 14.769531 33.230469 13.941406 33.230469 12.921875 L 33.230469 1.847656 C 33.230469 0.828125 34.058594 0 35.078125 0 L 46.152344 0 C 47.171875 0 48 0.828125 48 1.847656 L 48 12.921875 C 48 13.941406 47.171875 14.769531 46.152344 14.769531 Z M 36.921875 11.078125 L 44.308594 11.078125 L 44.308594 3.691406 L 36.921875 3.691406 Z M 36.921875 11.078125 "/>
<path stroke="none" fillRule="nonzero" fill="#000000" fillOpacity="1" d="M 46.152344 31.382812 L 35.078125 31.382812 C 34.058594 31.382812 33.230469 30.558594 33.230469 29.539062 L 33.230469 18.460938 C 33.230469 17.441406 34.058594 16.617188 35.078125 16.617188 L 46.152344 16.617188 C 47.171875 16.617188 48 17.441406 48 18.460938 L 48 29.539062 C 48 30.558594 47.171875 31.382812 46.152344 31.382812 Z M 36.921875 27.691406 L 44.308594 27.691406 L 44.308594 20.308594 L 36.921875 20.308594 Z M 36.921875 27.691406 "/>
<path stroke="none" fillRule="nonzero" fill="#000000" fillOpacity="1" d="M 46.152344 48 L 35.078125 48 C 34.058594 48 33.230469 47.171875 33.230469 46.152344 L 33.230469 35.078125 C 33.230469 34.058594 34.058594 33.230469 35.078125 33.230469 L 46.152344 33.230469 C 47.171875 33.230469 48 34.058594 48 35.078125 L 48 46.152344 C 48 47.171875 47.171875 48 46.152344 48 Z M 36.921875 44.308594 L 44.308594 44.308594 L 44.308594 36.921875 L 36.921875 36.921875 Z M 36.921875 44.308594 "/>
</svg>
