<svg xmlns="http://www.w3.org/2000/svg" xmlns:xlink="http://www.w3.org/1999/xlink" width="24px" height="24px" viewBox="0 0 24 24" version="1.1">
<path stroke="none" fillRule="nonzero" fill="#000000" fillOpacity="1" d="M 16.140625 3.394531 C 18.070312 3.4375 19.839844 4.6875 20.558594 6.574219 C 21.457031 8.917969 20.816406 11.621094 19.625 13.933594 C 18.203125 16.699219 15.578125 18.699219 12.886719 20.417969 C 12.886719 20.417969 11.839844 20.925781 10.820312 20.265625 C 7.351562 18.007812 4.117188 15.03125 3.199219 10.960938 C 2.503906 7.863281 3.636719 3.984375 7.167969 3.445312 C 8.9375 3.175781 11.335938 4.484375 11.972656 5.648438 C 12.59375 4.488281 14.433594 3.441406 15.980469 3.394531 C 16.0625 3.394531 16.0625 3.394531 16.140625 3.394531 Z M 16.140625 3.394531 "/>
</svg>
