<svg xmlns="http://www.w3.org/2000/svg" xmlns:xlink="http://www.w3.org/1999/xlink" width="24px" height="24px" viewBox="0 0 24 24" version="1.1">
<path stroke="none" fillRule="nonzero" fill="#000000" fillOpacity="1" d="M 16.199219 3.394531 C 18.125 3.4375 19.894531 4.6875 20.617188 6.574219 C 21.515625 8.917969 20.871094 11.621094 19.683594 13.933594 C 18.261719 16.699219 15.636719 18.699219 12.945312 20.417969 C 12.945312 20.417969 11.898438 20.925781 10.878906 20.265625 C 7.410156 18.007812 4.171875 15.03125 3.257812 10.960938 C 2.5625 7.863281 3.695312 3.984375 7.226562 3.445312 C 8.996094 3.175781 11.390625 4.484375 12.027344 5.648438 C 12.652344 4.488281 14.492188 3.441406 16.039062 3.394531 C 16.121094 3.394531 16.121094 3.394531 16.199219 3.394531 Z M 16.070312 4.894531 C 14.054688 4.953125 12.640625 7.074219 12.027344 8.785156 C 11.851562 8.292969 11.824219 8.238281 11.714844 7.996094 C 11.636719 7.816406 11.550781 7.640625 11.457031 7.46875 C 10.421875 5.519531 7.835938 3.777344 5.710938 5.785156 C 3.480469 7.890625 4.621094 12.339844 6.917969 15.019531 C 8.351562 16.695312 10.148438 18.03125 12.027344 19.222656 C 14.492188 17.664062 16.984375 15.882812 18.292969 13.355469 C 19.660156 10.71875 20.488281 7.148438 17.90625 5.4375 C 17.675781 5.28125 17.429688 5.160156 17.167969 5.066406 C 16.8125 4.945312 16.570312 4.886719 16.070312 4.894531 Z M 16.070312 4.894531 "/>
</svg>
