<svg xmlns="http://www.w3.org/2000/svg" xmlns:xlink="http://www.w3.org/1999/xlink" viewBox="0 0 48 48" version="1.1">
<path stroke="none" fillRule="nonzero" fill="#0000000" fillOpacity="1" d="M 46.152344 14.324219 L 1.847656 14.324219 C 0.828125 14.324219 0 13.5 0 12.480469 L 0 1.847656 C 0 0.828125 0.828125 0 1.847656 0 L 46.152344 0 C 47.171875 0 48 0.828125 48 1.847656 L 48 12.480469 C 48 13.5 47.171875 14.324219 46.152344 14.324219 Z M 3.691406 10.632812 L 44.308594 10.632812 L 44.308594 3.691406 L 3.691406 3.691406 Z M 3.691406 10.632812 "/>
<path stroke="none" fillRule="nonzero" fill="#0000000" fillOpacity="1" d="M 46.152344 31.164062 L 1.847656 31.164062 C 0.828125 31.164062 0 30.335938 0 29.316406 L 0 18.683594 C 0 17.664062 0.828125 16.835938 1.847656 16.835938 L 46.152344 16.835938 C 47.171875 16.835938 48 17.664062 48 18.683594 L 48 29.316406 C 48 30.335938 47.171875 31.164062 46.152344 31.164062 Z M 3.691406 27.472656 L 44.308594 27.472656 L 44.308594 20.527344 L 3.691406 20.527344 Z M 3.691406 27.472656 "/>
<path stroke="none" fillRule="nonzero" fill="#0000000" fillOpacity="1" d="M 46.152344 48 L 1.847656 48 C 0.828125 48 0 47.171875 0 46.152344 L 0 35.519531 C 0 34.5 0.828125 33.675781 1.847656 33.675781 L 46.152344 33.675781 C 47.171875 33.675781 48 34.5 48 35.519531 L 48 46.152344 C 48 47.171875 47.171875 48 46.152344 48 Z M 3.691406 44.308594 L 44.308594 44.308594 L 44.308594 37.367188 L 3.691406 37.367188 Z M 3.691406 44.308594 "/>
</svg>
